<?xml version="1.0" encoding="utf-8"?>
<svg version="1.1" xmlns:xlink="http://www.w3.org/1999/xlink" width="15px" height="15px" xmlns="http://www.w3.org/2000/svg">
  <g transform="matrix(1 0 0 1 -532 -461 )">
    <path d="M 539.5 461  C 543.7 461  547 464.3  547 468.5  C 547 472.7  543.7 476  539.5 476  C 535.3 476  532 472.7  532 468.5  C 532 464.3  535.3 461  539.5 461  Z " fill-rule="nonzero" fill="#ffffff" stroke="none" />
    <path d="M 539.5 461.5  C 543.42 461.5  546.5 464.58  546.5 468.5  C 546.5 472.42  543.42 475.5  539.5 475.5  C 535.58 475.5  532.5 472.42  532.5 468.5  C 532.5 464.58  535.58 461.5  539.5 461.5  Z " stroke-width="1" stroke="#797979" fill="none" />
  </g>
</svg>